<svg xmlns="http://www.w3.org/2000/svg" width="14.901" height="16.527" viewBox="0 0 14.901 16.527">
  <g id="box" transform="translate(0.5 0.521)">
    <path id="Path_151" data-name="Path 151" d="M16.9,12.812V6.634A1.545,1.545,0,0,0,16.129,5.3L10.723,2.209a1.545,1.545,0,0,0-1.545,0L3.772,5.3A1.545,1.545,0,0,0,3,6.634v6.178a1.545,1.545,0,0,0,.772,1.336l5.406,3.089a1.545,1.545,0,0,0,1.545,0l5.406-3.089A1.545,1.545,0,0,0,16.9,12.812Z" transform="translate(-3 -2.002)" fill="none" stroke="#000" stroke-linecap="round" stroke-linejoin="round" stroke-width="1"/>
    <path id="Path_152" data-name="Path 152" d="M3.27,6.96l6.742,3.9,6.742-3.9" transform="translate(-3.061 -3.131)" fill="none" stroke="#000" stroke-linecap="round" stroke-linejoin="round" stroke-width="1"/>
    <line id="Line_2" data-name="Line 2" y1="7.785" transform="translate(6.951 7.721)" fill="none" stroke="#000" stroke-linecap="round" stroke-linejoin="round" stroke-width="1"/>
  </g>
</svg>
