<svg id="free-parking" xmlns="http://www.w3.org/2000/svg" width="85" height="85" viewBox="0 0 85 85">
  <g id="Group_100" data-name="Group 100">
    <g id="Group_99" data-name="Group 99">
      <g id="Group_98" data-name="Group 98">
        <g id="Group_97" data-name="Group 97">
          <g id="Group_96" data-name="Group 96">
            <g id="Group_95" data-name="Group 95">
              <g id="Group_94" data-name="Group 94">
                <g id="Group_93" data-name="Group 93">
                  <g id="Group_92" data-name="Group 92">
                    <g id="Group_91" data-name="Group 91">
                      <g id="Group_90" data-name="Group 90">
                        <g id="Group_89" data-name="Group 89">
                          <g id="Group_88" data-name="Group 88">
                            <g id="Group_87" data-name="Group 87">
                              <g id="Group_86" data-name="Group 86">
                                <g id="Group_85" data-name="Group 85">
                                  <g id="Group_84" data-name="Group 84">
                                    <g id="Group_83" data-name="Group 83">
                                      <g id="Group_82" data-name="Group 82">
                                        <g id="Group_81" data-name="Group 81">
                                          <path id="Path_49" data-name="Path 49" d="M37.009,84.649a42.5,42.5,0,1,1,10.983,0Z" fill="#63db5e"/>
                                        </g>
                                      </g>
                                    </g>
                                  </g>
                                </g>
                              </g>
                            </g>
                          </g>
                        </g>
                      </g>
                    </g>
                  </g>
                </g>
              </g>
            </g>
          </g>
        </g>
      </g>
    </g>
  </g>
  <g id="Group_101" data-name="Group 101" transform="translate(37.009 53.526)">
    <path id="Path_51" data-name="Path 51" d="M222.922,353.537a43.055,43.055,0,0,0,10.983,0V322.415H222.922v31.122Z" transform="translate(-222.922 -322.415)" fill="#555a66"/>
  </g>
  <g id="Group_102" data-name="Group 102" transform="translate(42.52 53.526)">
    <path id="Path_52" data-name="Path 52" d="M261.591,322.415H256.12v31.474a42.9,42.9,0,0,0,5.471-.351Z" transform="translate(-256.12 -322.415)" fill="#333940"/>
  </g>
  <g id="Group_103" data-name="Group 103" transform="translate(19.241 10.293)">
    <path id="Path_53" data-name="Path 53" d="M166.157,129.3H137.173a6.277,6.277,0,0,1-6.277-6.277V83.277A6.277,6.277,0,0,1,137.173,77h28.984a6.277,6.277,0,0,1,6.277,6.277V123.02A6.277,6.277,0,0,1,166.157,129.3Z" transform="translate(-128.406 -74.51)" fill="#80dbff"/>
    <path id="Path_54" data-name="Path 54" d="M270.592,77H256.12v52.3h14.472a6.277,6.277,0,0,0,6.277-6.278V83.277A6.277,6.277,0,0,0,270.592,77Z" transform="translate(-232.841 -74.51)" fill="#4ab8f7"/>
    <path id="Path_55" data-name="Path 55" d="M153.648,119.279H124.664a8.778,8.778,0,0,1-8.768-8.768V70.768A8.778,8.778,0,0,1,124.664,62h28.984a8.778,8.778,0,0,1,8.768,8.768v39.743A8.777,8.777,0,0,1,153.648,119.279Zm-28.984-52.3a3.792,3.792,0,0,0-3.787,3.787v39.743a3.792,3.792,0,0,0,3.787,3.787h28.984a3.791,3.791,0,0,0,3.787-3.787V70.768a3.791,3.791,0,0,0-3.787-3.787Z" transform="translate(-115.896 -62)" fill="#fff"/>
    <path id="Path_56" data-name="Path 56" d="M270.592,62H256.12v4.98h14.472a3.791,3.791,0,0,1,3.787,3.787v39.743a3.791,3.791,0,0,1-3.787,3.787H256.12v4.98h14.472a8.778,8.778,0,0,0,8.768-8.768V70.768A8.778,8.778,0,0,0,270.592,62Z" transform="translate(-232.841 -62)" fill="#e9edf5"/>
  </g>
  <g id="Group_105" data-name="Group 105" transform="translate(35.366 27.113)">
    <path id="Path_57" data-name="Path 57" d="M221.16,121.15h-8.13V144.6h4.98V137.41h3.149a8.13,8.13,0,1,0,0-16.26Zm0,11.279H218.01v-6.3h3.149a3.149,3.149,0,1,1,0,6.3Z" transform="translate(-213.03 -121.15)" fill="#fff"/>
    <g id="Group_104" data-name="Group 104" transform="translate(7.154)">
      <path id="Path_58" data-name="Path 58" d="M257.1,121.15h-.976v4.98h.976a3.149,3.149,0,1,1,0,6.3h-.976v4.98h.976a8.13,8.13,0,1,0,0-16.26Z" transform="translate(-256.12 -121.15)" fill="#e9edf5"/>
    </g>
  </g>
</svg>
