<svg xmlns="http://www.w3.org/2000/svg" width="57.126" height="46" viewBox="0 0 57.126 46">
  <g id="Group_210" data-name="Group 210" transform="translate(1 1)">
    <path id="Path_138" data-name="Path 138" d="M51.614,20.714V11.286C51.614,7.829,49.133,5,46.1,5H13.025C9.993,5,7.513,7.829,7.513,11.286v9.429C4.481,20.714,2,23.543,2,27V42.714H5.666L7.513,49h2.756l1.847-6.286H47.038L48.857,49h2.756l1.847-6.286h3.666V27C57.126,23.543,54.646,20.714,51.614,20.714Zm-24.807,0H13.025V11.286H26.807Zm19.294,0H32.32V11.286H46.1Z" transform="translate(-2 -5)" fill="none" stroke="#000" stroke-width="2"/>
  </g>
</svg>
