<svg xmlns="http://www.w3.org/2000/svg" width="85" height="85" viewBox="0 0 85 85">
  <g id="Group_264" data-name="Group 264" transform="translate(-407.07 -2432)">
    <g id="disabled-sign" transform="translate(407.07 2432)">
      <path id="Path_17" data-name="Path 17" d="M42.5,0l7.8,44.99L42.5,85A42.5,42.5,0,0,1,12.448,12.448,42.223,42.223,0,0,1,42.5,0Z" transform="translate(0 0)" fill="#63db5e"/>
      <path id="Path_18" data-name="Path 18" d="M298.5,42.5q0,1.576-.113,3.133A42.5,42.5,0,0,1,256,85V0a42.5,42.5,0,0,1,42.5,42.5Z" transform="translate(-213.5 0)" fill="#63db5e"/>
    </g>
    <g id="wheelchair" transform="translate(419.12 2445.426)">
      <g id="Group_253" data-name="Group 253" transform="translate(47.735 39.771)">
        <path id="Path_155" data-name="Path 155" d="M368.868,368.475h1.643v6.849h-1.643Z" transform="translate(-368.868 -368.475)" fill="#e1ebf0"/>
      </g>
      <path id="Path_177" data-name="Path 177" d="M4.426,0A4.426,4.426,0,1,1,0,4.426,4.426,4.426,0,0,1,4.426,0Z" transform="translate(44.13 45.592)" fill="#be3700"/>
      <path id="Path_178" data-name="Path 178" d="M1.383,0A1.383,1.383,0,1,1,0,1.383,1.383,1.383,0,0,1,1.383,0Z" transform="translate(47.173 48.635)" fill="#fff"/>
      <path id="Path_156" data-name="Path 156" d="M426.764,407.944h-5.428a1.1,1.1,0,0,1-.99-.626l-1.593-3.357h8.011a1.1,1.1,0,0,1,1.1,1.1v1.793A1.1,1.1,0,0,1,426.764,407.944Z" transform="translate(-365.635 -360.36)" fill="#be3700"/>
      <path id="Path_157" data-name="Path 157" d="M376.071,358.76l-2.371-5a.822.822,0,0,0-.742-.469h-4.089v1.643h3.57l1.815,3.826Z" transform="translate(-321.133 -315.159)" fill="#e1ebf0"/>
      <g id="Group_254" data-name="Group 254" transform="translate(11.326)">
        <path id="Path_158" data-name="Path 158" d="M38.485,3.138H36.842v-.1a1.393,1.393,0,0,0-1.391-1.391H31.542V0h3.909a3.038,3.038,0,0,1,3.034,3.034Z" transform="translate(-31.542)" fill="#e1ebf0"/>
      </g>
      <path id="Path_159" data-name="Path 159" d="M12.421.657V6.2a.657.657,0,0,1-.657.657H9.537A.657.657,0,0,1,8.88,6.2V.657A.657.657,0,0,1,9.537,0h2.226a.657.657,0,0,1,.657.657Z" transform="translate(0 0)" fill="#be3700"/>
      <path id="Path_160" data-name="Path 160" d="M112.3,240.441H80.638V224.95h28.327a4.426,4.426,0,0,1,4.426,4.426v9.97A1.1,1.1,0,0,1,112.3,240.441Z" transform="translate(-64.013 -200.67)" fill="#ffe377"/>
      <path id="Path_161" data-name="Path 161" d="M97.394,224.95H80.638v9.6a9.734,9.734,0,0,1,17.483,5.893h8.188A17.935,17.935,0,0,0,97.394,224.95Z" transform="translate(-64.013 -200.67)" fill="#fc0"/>
      <path id="Path_162" data-name="Path 162" d="M87.277,49.36H80.638V28.115h1.243A4.426,4.426,0,0,1,86.3,32.288Z" transform="translate(-64.013 -25.08)" fill="#e1ebf0"/>
      <path id="Path_163" data-name="Path 163" d="M97.583,32.313a4.425,4.425,0,0,0-4.3-4.17,4.421,4.421,0,0,1,2.084,3.506l.978,17.736h2.213Z" transform="translate(-75.297 -25.105)" fill="#b7c8ea"/>
      <g id="Group_263" data-name="Group 263" transform="translate(8.88 24.28)">
        <g id="Group_255" data-name="Group 255" transform="translate(17.989 14.67)">
          <path id="Path_164" data-name="Path 164" d="M185.225,362.509h-8.852a.822.822,0,0,1,0-1.643h8.852a.822.822,0,0,1,0,1.643Z" transform="translate(-175.552 -360.866)" fill="#d8e2f1"/>
        </g>
        <g id="Group_256" data-name="Group 256" transform="translate(14.67 2.498)">
          <path id="Path_165" data-name="Path 165" d="M145.615,258.589a.821.821,0,0,1-.821-.822v-8.852a.821.821,0,0,1,1.643,0v8.852A.821.821,0,0,1,145.615,258.589Z" transform="translate(-144.794 -248.094)" fill="#d8e2f1"/>
        </g>
        <g id="Group_257" data-name="Group 257" transform="translate(14.67 17.989)">
          <path id="Path_166" data-name="Path 166" d="M145.615,402.113a.821.821,0,0,1-.821-.821V392.44a.821.821,0,1,1,1.643,0v8.852A.821.821,0,0,1,145.615,402.113Z" transform="translate(-144.794 -391.618)" fill="#d8e2f1"/>
        </g>
        <g id="Group_258" data-name="Group 258" transform="translate(6.063 6.063)">
          <path id="Path_167" data-name="Path 167" d="M72.134,289.026a.819.819,0,0,1-.581-.241l-6.259-6.259a.822.822,0,1,1,1.162-1.162l6.259,6.259a.822.822,0,0,1-.581,1.4Z" transform="translate(-65.053 -281.124)" fill="#d8e2f1"/>
        </g>
        <g id="Group_259" data-name="Group 259" transform="translate(17.017 17.017)">
          <path id="Path_168" data-name="Path 168" d="M173.622,390.514a.819.819,0,0,1-.581-.241l-6.259-6.259a.821.821,0,1,1,1.162-1.162l6.259,6.259a.822.822,0,0,1-.581,1.4Z" transform="translate(-166.541 -382.612)" fill="#d8e2f1"/>
        </g>
        <g id="Group_260" data-name="Group 260" transform="translate(2.498 14.67)">
          <path id="Path_169" data-name="Path 169" d="M41.7,362.506H32.845a.822.822,0,0,1,0-1.643H41.7a.822.822,0,1,1,0,1.643Z" transform="translate(-32.024 -360.863)" fill="#d8e2f1"/>
        </g>
        <g id="Group_261" data-name="Group 261" transform="translate(6.063 17.017)">
          <path id="Path_170" data-name="Path 170" d="M65.875,390.514a.822.822,0,0,1-.581-1.4l6.259-6.259a.822.822,0,1,1,1.162,1.162l-6.259,6.259A.819.819,0,0,1,65.875,390.514Z" transform="translate(-65.053 -382.612)" fill="#d8e2f1"/>
        </g>
        <g id="Group_262" data-name="Group 262" transform="translate(17.017 6.063)">
          <path id="Path_171" data-name="Path 171" d="M167.363,289.026a.822.822,0,0,1-.581-1.4l6.259-6.259a.822.822,0,1,1,1.162,1.162l-6.259,6.259a.819.819,0,0,1-.581.241Z" transform="translate(-166.541 -281.124)" fill="#d8e2f1"/>
        </g>
        <path id="Path_172" data-name="Path 172" d="M24.371,224.95a15.6,15.6,0,0,0-14.314,9.558,15.083,15.083,0,0,0-1.177,5.933A15.491,15.491,0,1,0,24.371,224.95Zm0,27.663a12.172,12.172,0,1,1,12.172-12.172A12.172,12.172,0,0,1,24.371,252.613Z" transform="translate(-8.88 -224.95)" fill="#be3700"/>
        <path id="Path_173" data-name="Path 173" d="M60.42,254.763a15.516,15.516,0,0,1,2.642,13.648A12.175,12.175,0,0,1,52.343,279.13a15.517,15.517,0,0,1-13.648-2.642A15.491,15.491,0,1,0,60.42,254.763Z" transform="translate(-35.477 -251.545)" fill="#be3700"/>
        <circle id="Ellipse_26" data-name="Ellipse 26" cx="3.319" cy="3.319" r="3.319" transform="translate(12.172 12.172)" fill="#d8e2f1"/>
        <path id="Path_174" data-name="Path 174" d="M128.766,340.444a3.319,3.319,0,0,1-4.391,4.391,3.319,3.319,0,1,0,4.391-4.391Z" transform="translate(-111.909 -327.978)" fill="#b7c8ea"/>
      </g>
      <path id="Path_175" data-name="Path 175" d="M147.555,162.879h-17.7v-1.328a2.213,2.213,0,0,1,2.213-2.213h13.278a2.213,2.213,0,0,1,2.213,2.213v1.328Z" transform="translate(-107.914 -142.14)" fill="#be3700"/>
      <path id="Path_176" data-name="Path 176" d="M80.638,184.532h25.008a.821.821,0,0,1,.821.821v3.541h-1.643v-2.719H80.638Z" transform="translate(-64.013 -164.615)" fill="#d8e2f1"/>
    </g>
  </g>
</svg>
