<svg id="Group_1" data-name="Group 1" xmlns="http://www.w3.org/2000/svg" width="166" height="60.926" viewBox="0 0 166 60.926">
  <path id="Path_195" data-name="Path 195" d="M7.384-8.6a4.794,4.794,0,0,1,.276,1.5,4.666,4.666,0,0,1-.628,2.375A4.611,4.611,0,0,1,5.315-3.013a4.666,4.666,0,0,1-2.375.628H.612V-5.541H2.941A1.455,1.455,0,0,0,4.028-6a1.531,1.531,0,0,0,.444-1.1,2.4,2.4,0,0,0-.184-.8L2.91-11.7H6.25Zm4.688,1.624a1.531,1.531,0,0,0-.444-1.1,1.455,1.455,0,0,0-1.088-.46V-11.7a1.455,1.455,0,0,0,1.088-.46,1.531,1.531,0,0,0,.444-1.1,2.4,2.4,0,0,0-.184-.8L8.211-24.14h3.34l3.432,9.376a4.794,4.794,0,0,1,.276,1.5,4.694,4.694,0,0,1-.322,1.716,4.274,4.274,0,0,1-.873,1.409v.031A4.274,4.274,0,0,1,14.937-8.7a4.694,4.694,0,0,1,.322,1.716v4.6H12.072ZM24.052-8.6a4.794,4.794,0,0,1,.276,1.5A4.666,4.666,0,0,1,23.7-4.729a4.611,4.611,0,0,1-1.716,1.716,4.666,4.666,0,0,1-2.375.628H17.281V-5.541H19.61A1.455,1.455,0,0,0,20.7-6a1.531,1.531,0,0,0,.444-1.1,2.4,2.4,0,0,0-.184-.8l-1.379-3.8h3.34ZM26.9-24.14h3.187v12.777h.031a3.721,3.721,0,0,1,1.838-.46,4.2,4.2,0,0,1,2.176.6,4.425,4.425,0,0,1,1.609,1.639,4.537,4.537,0,0,1,.6,2.3v4.9H33.153V-7.1a1.531,1.531,0,0,0-.444-1.1,1.455,1.455,0,0,0-1.088-.46,1.455,1.455,0,0,0-1.088.46,1.531,1.531,0,0,0-.444,1.1v4.719H26.9ZM38.791-.7a4.571,4.571,0,0,1,.873-2.742,4.638,4.638,0,0,1,2.252-1.7V-11.7H45.1v9.437H43.51a1.455,1.455,0,0,0-1.088.46,1.531,1.531,0,0,0-.444,1.1V5.459a1.5,1.5,0,0,0,.46,1.1,1.47,1.47,0,0,0,1.072.46,1.455,1.455,0,0,0,1.088-.46,1.531,1.531,0,0,0,.444-1.1V-.7h3.187V5.459A4.666,4.666,0,0,1,47.6,7.834,4.611,4.611,0,0,1,45.884,9.55a4.666,4.666,0,0,1-2.375.628,4.525,4.525,0,0,1-2.344-.643,4.888,4.888,0,0,1-1.731-1.716,4.5,4.5,0,0,1-.643-2.359ZM67.41-2.262a4.125,4.125,0,0,1-2.145-.582A4.405,4.405,0,0,1,63.7-4.407a4.125,4.125,0,0,1-.582-2.145,4.206,4.206,0,0,1,.582-2.16,4.367,4.367,0,0,1,1.563-1.578,4.125,4.125,0,0,1,2.145-.582,2.3,2.3,0,0,0,1.685-.7,2.3,2.3,0,0,0,.7-1.685,2.3,2.3,0,0,0-.7-1.685,2.3,2.3,0,0,0-1.685-.7,4.15,4.15,0,0,1-2.13-.582A4.33,4.33,0,0,1,63.7-17.813a4.206,4.206,0,0,1-.582-2.16V-24.14h1.93v4.167a2.362,2.362,0,0,0,.689,1.716,2.25,2.25,0,0,0,1.67.7,4.293,4.293,0,0,1,2.16.567,4.213,4.213,0,0,1,1.578,1.563,4.206,4.206,0,0,1,.582,2.16,4.206,4.206,0,0,1-.582,2.16A4.213,4.213,0,0,1,69.57-9.539a4.293,4.293,0,0,1-2.16.567,2.25,2.25,0,0,0-1.67.7,2.362,2.362,0,0,0-.689,1.716,2.325,2.325,0,0,0,.689,1.685,2.25,2.25,0,0,0,1.67.7,2.3,2.3,0,0,0,1.685-.7,2.3,2.3,0,0,0,.7-1.685h1.93a4.125,4.125,0,0,1-.582,2.145A4.367,4.367,0,0,1,69.57-2.844,4.206,4.206,0,0,1,67.41-2.262ZM79.881-8.145a4.722,4.722,0,0,1,.276,1.471,4.125,4.125,0,0,1-.582,2.145,4.405,4.405,0,0,1-1.563,1.563,4.125,4.125,0,0,1-2.145.582H73.354v-1.9h2.513a2.25,2.25,0,0,0,1.67-.7,2.325,2.325,0,0,0,.689-1.685,2.632,2.632,0,0,0-.245-1.072l-1.1-3.033h2.053Zm2.758,3.983a2.25,2.25,0,0,0,1.67-.7A2.325,2.325,0,0,0,85-6.552V-10.78h1.93v4.228a4.06,4.06,0,0,1-.475,1.915,3.966,3.966,0,0,1-1.21,1.425v.031a3.7,3.7,0,0,1,1.21,1.394A4.06,4.06,0,0,1,86.928.128V10.822H85V.128a2.325,2.325,0,0,0-.689-1.685,2.25,2.25,0,0,0-1.67-.7ZM99.43-6.613a2.3,2.3,0,0,0-.7-1.685A2.3,2.3,0,0,0,97.04-9a2.25,2.25,0,0,0-1.67.7,2.325,2.325,0,0,0-.689,1.685H92.75A2.325,2.325,0,0,0,92.061-8.3a2.25,2.25,0,0,0-1.67-.7H88.92v-1.9h1.471a3.97,3.97,0,0,1,1.9.475,3.461,3.461,0,0,1,1.379,1.3h.061a3.685,3.685,0,0,1,1.409-1.3,3.97,3.97,0,0,1,1.9-.475,4.293,4.293,0,0,1,2.16.567,4.213,4.213,0,0,1,1.578,1.563,4.206,4.206,0,0,1,.582,2.16v17.5H99.43Zm4.749-17.527h1.93V-9.923h.031a3.5,3.5,0,0,1,2.482-.981,4.076,4.076,0,0,1,2.084.552,4.154,4.154,0,0,1,1.517,1.517,4.128,4.128,0,0,1,.567,2.13v4.32h-1.93V-6.613a2.3,2.3,0,0,0-.7-1.685,2.3,2.3,0,0,0-1.685-.7,2.25,2.25,0,0,0-1.67.7,2.325,2.325,0,0,0-.689,1.685v4.228h-1.93ZM122.165-6.613a2.3,2.3,0,0,0-.7-1.685,2.3,2.3,0,0,0-1.685-.7,2.25,2.25,0,0,0-1.67.7,2.325,2.325,0,0,0-.689,1.685v4.228h-1.93V-6.613a4.206,4.206,0,0,1,.582-2.16,4.213,4.213,0,0,1,1.578-1.563,4.236,4.236,0,0,1,2.13-.567,4.293,4.293,0,0,1,2.16.567,4.213,4.213,0,0,1,1.578,1.563,4.206,4.206,0,0,1,.582,2.16v4.228h-1.93Zm10.326-1.532a4.722,4.722,0,0,1,.276,1.471,4.125,4.125,0,0,1-.582,2.145,4.405,4.405,0,0,1-1.563,1.563,4.125,4.125,0,0,1-2.145.582h-2.513v-1.9h2.513a2.25,2.25,0,0,0,1.67-.7,2.325,2.325,0,0,0,.689-1.685,2.632,2.632,0,0,0-.245-1.072l-1.1-3.033h2.053Zm6.8,5.883a4.125,4.125,0,0,1-2.145-.582,4.405,4.405,0,0,1-1.563-1.563A4.125,4.125,0,0,1,135-6.552v-13.3A4.125,4.125,0,0,1,135.586-22a4.405,4.405,0,0,1,1.563-1.563,4.125,4.125,0,0,1,2.145-.582h3.4v1.9h-3.4a2.25,2.25,0,0,0-1.67.7,2.325,2.325,0,0,0-.689,1.685v13.3a2.325,2.325,0,0,0,.689,1.685,2.25,2.25,0,0,0,1.67.7,2.3,2.3,0,0,0,1.685-.7,2.3,2.3,0,0,0,.7-1.685,2.348,2.348,0,0,0-.689-1.731,2.311,2.311,0,0,0-1.7-.689v-1.9a4.206,4.206,0,0,1,2.16.582,4.33,4.33,0,0,1,1.578,1.578,4.206,4.206,0,0,1,.582,2.16,4.125,4.125,0,0,1-.582,2.145,4.367,4.367,0,0,1-1.578,1.563A4.206,4.206,0,0,1,139.294-2.262Zm13.451-4.351a2.3,2.3,0,0,0-.7-1.685,2.3,2.3,0,0,0-1.685-.7,2.25,2.25,0,0,0-1.67.7A2.325,2.325,0,0,0,148-6.613v4.228h-1.93V-6.613a4.206,4.206,0,0,1,.582-2.16,4.213,4.213,0,0,1,1.578-1.563,4.236,4.236,0,0,1,2.13-.567,4.293,4.293,0,0,1,2.16.567,4.213,4.213,0,0,1,1.578,1.563,4.206,4.206,0,0,1,.582,2.16v4.228h-1.93Z" transform="translate(11.324 50.043)" fill="#fff"/>
  <path id="Path_1" data-name="Path 1" d="M33.774,8.444,4.222,38,0,33.774,33.774,0,67.547,33.774,63.325,38Z" fill="#fff"/>
  <path id="Path_2" data-name="Path 2" d="M17.548,4.387,2.194,19.741,0,17.548,17.548,0,35.1,17.548,32.9,19.741Z" transform="translate(53.734 2.985)" fill="#fff"/>
</svg>
