<svg xmlns="http://www.w3.org/2000/svg" width="46" height="44" viewBox="0 0 46 44">
  <g id="Group_282" data-name="Group 282" transform="translate(-58 -4331)">
    <g id="Rectangle_158" data-name="Rectangle 158" transform="translate(93 4331)" fill="#fff" stroke="#000" stroke-width="1">
      <rect width="11" height="2" stroke="none"/>
      <rect x="0.5" y="0.5" width="10" height="1" fill="none"/>
    </g>
    <g id="Rectangle_159" data-name="Rectangle 159" transform="translate(93 4331) rotate(90)" fill="#fff" stroke="#000" stroke-width="1">
      <rect width="11" height="2" stroke="none"/>
      <rect x="0.5" y="0.5" width="10" height="1" fill="none"/>
    </g>
    <g id="Rectangle_161" data-name="Rectangle 161" transform="translate(82 4342) rotate(90)" fill="#fff" stroke="#000" stroke-width="1">
      <rect width="11" height="2" stroke="none"/>
      <rect x="0.5" y="0.5" width="10" height="1" fill="none"/>
    </g>
    <g id="Rectangle_163" data-name="Rectangle 163" transform="translate(71 4353) rotate(90)" fill="#fff" stroke="#000" stroke-width="1">
      <rect width="11" height="2" stroke="none"/>
      <rect x="0.5" y="0.5" width="10" height="1" fill="none"/>
    </g>
    <g id="Rectangle_165" data-name="Rectangle 165" transform="translate(60 4364) rotate(90)" fill="#fff" stroke="#000" stroke-width="1">
      <rect width="11" height="2" stroke="none"/>
      <rect x="0.5" y="0.5" width="10" height="1" fill="none"/>
    </g>
    <g id="Rectangle_160" data-name="Rectangle 160" transform="translate(91 4342) rotate(180)" fill="#fff" stroke="#000" stroke-width="1">
      <rect width="11" height="2" stroke="none"/>
      <rect x="0.5" y="0.5" width="10" height="1" fill="none"/>
    </g>
    <g id="Rectangle_162" data-name="Rectangle 162" transform="translate(80 4353) rotate(180)" fill="#fff" stroke="#000" stroke-width="1">
      <rect width="11" height="2" stroke="none"/>
      <rect x="0.5" y="0.5" width="10" height="1" fill="none"/>
    </g>
    <g id="Rectangle_164" data-name="Rectangle 164" transform="translate(69 4364) rotate(180)" fill="#fff" stroke="#000" stroke-width="1">
      <rect width="11" height="2" stroke="none"/>
      <rect x="0.5" y="0.5" width="10" height="1" fill="none"/>
    </g>
  </g>
</svg>
