<svg id="placeholder" xmlns="http://www.w3.org/2000/svg" width="85" height="85" viewBox="0 0 85 85">
  <g id="Group_112" data-name="Group 112">
    <g id="Group_111" data-name="Group 111">
      <g id="Group_110" data-name="Group 110">
        <g id="Group_109" data-name="Group 109">
          <g id="Group_108" data-name="Group 108">
            <circle id="Ellipse_10" data-name="Ellipse 10" cx="42.5" cy="42.5" r="42.5" fill="#63db5e"/>
          </g>
        </g>
      </g>
    </g>
  </g>
  <g id="Group_113" data-name="Group 113" transform="translate(22.164 65.088)">
    <ellipse id="Ellipse_11" data-name="Ellipse 11" cx="20.336" cy="5.48" rx="20.336" ry="5.48" fill="#3bd135"/>
  </g>
  <g id="Group_114" data-name="Group 114" transform="translate(42.5 65.088)">
    <path id="Path_64" data-name="Path 64" d="M256,392.058c11.232,0,20.336,2.453,20.336,5.48s-9.1,5.48-20.336,5.48Z" transform="translate(-256 -392.058)" fill="#3bd135"/>
  </g>
  <g id="Group_115" data-name="Group 115" transform="translate(21.028 11.839)">
    <path id="Path_65" data-name="Path 65" d="M152.413,70.076c0,19.412-21.472,35.242-21.472,35.242s-21.472-17.007-21.472-35.242a21.472,21.472,0,1,1,42.945,0Z" transform="translate(-109.468 -48.604)" fill="#ff5e5e"/>
  </g>
  <g id="Group_116" data-name="Group 116" transform="translate(42.5 11.839)">
    <path id="Path_66" data-name="Path 66" d="M256,48.6a21.472,21.472,0,0,1,21.472,21.472c0,19.412-21.472,35.242-21.472,35.242Z" transform="translate(-256 -48.604)" fill="#ec4a4a"/>
  </g>
  <g id="Group_138" data-name="Group 138" transform="translate(26.242 17.044)">
    <g id="Group_121" data-name="Group 121" transform="translate(0 0)">
      <g id="Group_120" data-name="Group 120">
        <g id="Group_119" data-name="Group 119">
          <g id="Group_118" data-name="Group 118">
            <g id="Group_117" data-name="Group 117">
              <ellipse id="Ellipse_12" data-name="Ellipse 12" cx="16.259" cy="16.259" rx="16.259" ry="16.259" fill="#fff"/>
            </g>
          </g>
        </g>
      </g>
    </g>
    <g id="Group_126" data-name="Group 126" transform="translate(16.258 0)">
      <g id="Group_125" data-name="Group 125">
        <g id="Group_124" data-name="Group 124">
          <g id="Group_123" data-name="Group 123">
            <g id="Group_122" data-name="Group 122">
              <path id="Path_67" data-name="Path 67" d="M256,84.13a16.259,16.259,0,0,1,0,32.517Z" transform="translate(-256 -84.13)" fill="#e9edf5"/>
            </g>
          </g>
        </g>
      </g>
    </g>
  </g>
</svg>
