<svg id="security-system" xmlns="http://www.w3.org/2000/svg" width="85" height="85" viewBox="0 0 85 85">
  <g id="Group_139" data-name="Group 139">
    <path id="Path_69" data-name="Path 69" d="M85,42.5c0-.417-.008-.831-.02-1.245L82.665,40.01l2.169-1.245q-.109-1.256-.29-2.49l-1.88-1.245L84.1,33.784a42.344,42.344,0,0,0-9.028-18.578l-2.414.653.757-2.517q-.855-.906-1.761-1.761l-2.517.757.653-2.414A42.344,42.344,0,0,0,51.216.9L49.971,2.335,48.726.455q-1.234-.181-2.49-.29L44.99,2.335,43.745.02C43.331.008,42.917,0,42.5,0s-.831.008-1.245.02L40.01,2.335,38.765.165q-1.256.109-2.49.29l-1.245,1.88L33.784.9A42.344,42.344,0,0,0,15.206,9.925l.653,2.414-2.517-.757q-.906.855-1.761,1.761l.757,2.517-2.414-.653A42.344,42.344,0,0,0,.9,33.784l1.439,1.245L.455,36.274q-.181,1.234-.29,2.49L2.335,40.01.02,41.255C.008,41.669,0,42.083,0,42.5s.008.831.02,1.245L2.335,44.99.165,46.235q.109,1.256.29,2.49l1.88,1.245L.9,51.216A42.344,42.344,0,0,0,9.925,69.794l2.414-.653-.757,2.517q.855.906,1.761,1.761l2.517-.757-.653,2.414A42.344,42.344,0,0,0,33.784,84.1l1.245-1.439,1.245,1.88q1.234.181,2.49.29l1.245-2.17,1.245,2.315c.414.012.829.02,1.245.02s.831-.008,1.245-.02l1.245-2.315,1.245,2.17q1.256-.109,2.49-.29l1.245-1.88L51.216,84.1a42.344,42.344,0,0,0,18.578-9.028l-.653-2.414,2.517.757q.906-.855,1.761-1.761l-.757-2.517,2.414.653A42.344,42.344,0,0,0,84.1,51.216l-1.439-1.245,1.88-1.245q.181-1.234.29-2.49L82.665,44.99l2.315-1.245C84.992,43.331,85,42.917,85,42.5Z" transform="translate(0 0)" fill="#3bd135"/>
  </g>
  <g id="Group_141" data-name="Group 141" transform="translate(0.02 0.02)">
    <g id="Group_140" data-name="Group 140">
      <path id="Path_70" data-name="Path 70" d="M84.933,46.334q.108-1.236.146-2.49H51.314V39.165l2.792-2.792H84.643q-.185-1.257-.441-2.49H56.6L75.174,15.305q-.8-.956-1.658-1.864L53.075,33.883H51.314V11.18a2.486,2.486,0,0,0,0-4.309V.995Q50.082.738,48.824.553V6.872a2.486,2.486,0,0,0,0,4.309v22.7H41.353V13.268a2.486,2.486,0,0,0,0-4.309V.118Q40.1.154,38.863.264v8.7a2.486,2.486,0,0,0,0,4.309V33.883H32.122L18.354,20.115a2.486,2.486,0,0,0-3.047-3.047L11.68,13.441q-.856.907-1.658,1.864l3.524,3.524a2.486,2.486,0,0,0,3.047,3.047L28.6,33.883H11.758a2.486,2.486,0,0,0-4.309,0H.995q-.257,1.232-.441,2.49h6.9a2.486,2.486,0,0,0,4.309,0H31.09l7.471,7.471H16.336a2.486,2.486,0,0,0-4.309,0H.118q.036,1.255.146,2.49H12.027a2.486,2.486,0,0,0,4.309,0H38.863v1.761L22.942,64.015A2.486,2.486,0,0,0,19.9,67.062l-6.455,6.455q.907.856,1.864,1.658l6.351-6.351A2.486,2.486,0,0,0,24.7,65.776l14.16-14.16V84.933q1.236.108,2.49.146V49.126L42.6,47.881l6.226,6.226V84.643q1.257-.185,2.49-.441V56.6L69.892,75.174q.956-.8,1.864-1.658L51.314,53.075V46.334Zm-36.109-2.49H46.636l2.188-2.188Zm0-7.471v1.761l-5.71,5.71H42.083l-.729-.729V36.373Zm-9.961,0v4.251l-4.251-4.251Zm9.961,14.212-4.251-4.251h4.251Z" transform="translate(-0.118 -0.118)" fill="#3bd135"/>
    </g>
  </g>
  <g id="Group_143" data-name="Group 143" transform="translate(0.019 0.019)">
    <g id="Group_142" data-name="Group 142">
      <path id="Path_71" data-name="Path 71" d="M76.412,47.578a2.487,2.487,0,0,0-2.154,1.245H54.106l-7.471-7.471H69.277a2.486,2.486,0,0,0,4.309,0H85.078q-.036-1.255-.146-2.49H73.586a2.486,2.486,0,0,0-4.309,0H46.333V37.1L65.428,18.007a2.486,2.486,0,0,0,3.047-3.047l3.281-3.281q-.907-.856-1.864-1.658L66.714,13.2a2.486,2.486,0,0,0-3.047,3.047L46.333,33.58V.263Q45.1.155,43.843.117V36.07L42.6,37.315l-6.226-6.226V.553q-1.257.185-2.49.441V28.6L15.3,10.022q-.956.8-1.864,1.658L33.882,32.121v6.741H.263Q.155,40.1.117,41.352H33.882v4.678l-2.792,2.792H.553q.185,1.257.441,2.49H28.6L10.022,69.891q.8.956,1.658,1.864L32.121,51.313h1.761V69.244a2.486,2.486,0,0,0,0,4.309V84.2q1.232.257,2.49.441V73.553a2.486,2.486,0,0,0,0-4.309V51.313h7.471V75.954a2.486,2.486,0,0,0,0,4.309v4.815q1.255-.036,2.49-.146V80.263a2.486,2.486,0,0,0,0-4.309V51.313h6.741l12.8,12.8a2.486,2.486,0,0,0,3.047,3.047l4.6,4.6q.856-.907,1.658-1.864L70.679,65.4a2.486,2.486,0,0,0-3.047-3.047L56.6,51.313H74.257a2.486,2.486,0,0,0,4.309,0H84.2q.257-1.232.441-2.49H78.566a2.487,2.487,0,0,0-2.154-1.245ZM36.372,34.611l4.251,4.251H36.372Zm0,6.741H38.56l-2.188,2.188Zm0,7.471V47.062l5.71-5.71h1.031l.729.729v6.741Zm9.961,0V44.572l4.251,4.251Z" transform="translate(-0.117 -0.117)" fill="#3bd135"/>
    </g>
  </g>
  <g id="Group_144" data-name="Group 144" transform="translate(18.04 15.937)">
    <path id="Path_72" data-name="Path 72" d="M157.583,103.245a2.172,2.172,0,0,0-2.085-2.208C143.094,100.56,135.756,96,133.123,96s-9.971,4.56-22.375,5.037a2.172,2.172,0,0,0-2.085,2.208c.094,5.868.661,22.085,4.044,28.938,4.169,8.444,17,16.942,20.416,16.942s16.247-8.5,20.416-16.942C156.922,125.329,157.489,109.113,157.583,103.245Z" transform="translate(-108.662 -96)" fill="#fff"/>
  </g>
  <g id="Group_145" data-name="Group 145" transform="translate(20.535 18.428)">
    <path id="Path_73" data-name="Path 73" d="M145.659,159.144c-.843-.054-4.187-1.534-8.543-4.891-4.488-3.457-8-7.344-9.64-10.663-3.141-6.362-3.688-22.322-3.782-27.568a60.678,60.678,0,0,0,18.685-4,20.654,20.654,0,0,1,3.283-1.02,20.778,20.778,0,0,1,3.278,1.02,60.675,60.675,0,0,0,18.685,4c-.094,5.246-.641,21.206-3.782,27.568-1.639,3.319-5.152,7.206-9.64,10.663C149.845,157.61,146.5,159.09,145.659,159.144Z" transform="translate(-123.694 -111)" fill="#e9efff"/>
  </g>
  <g id="Group_147" data-name="Group 147" transform="translate(20.535 21.814)">
    <g id="Group_146" data-name="Group 146">
      <path id="Path_74" data-name="Path 74" d="M138.89,161.706c-3.7-7.5-4.032-26.215-4.06-30.306a55.678,55.678,0,0,1-11.138,1.635c.094,5.246.641,21.206,3.782,27.568,1.639,3.319,5.152,7.206,9.64,10.663,4.357,3.357,7.7,4.836,8.543,4.891a15.015,15.015,0,0,0,4.6-2.156C145.835,170.762,141.122,166.226,138.89,161.706Z" transform="translate(-123.693 -131.4)" fill="#d3dcfb"/>
    </g>
  </g>
  <g id="Group_159" data-name="Group 159" transform="translate(31.294 25.175)">
    <g id="Group_148" data-name="Group 148" transform="translate(3.735)">
      <path id="Path_75" data-name="Path 75" d="M218.471,151.642A7.471,7.471,0,0,0,211,159.113v6.226h3.735v-6.226a3.735,3.735,0,0,1,7.471,0v6.226h3.735v-6.226A7.471,7.471,0,0,0,218.471,151.642Z" transform="translate(-211 -151.642)" fill="#fff"/>
    </g>
    <g id="Group_149" data-name="Group 149" transform="translate(3.735)">
      <path id="Path_76" data-name="Path 76" d="M216.6,153.51a1.868,1.868,0,0,1,1.868-1.868A7.471,7.471,0,0,0,211,159.113v6.226h3.735v-6.226a3.735,3.735,0,0,1,3.735-3.735A1.868,1.868,0,0,1,216.6,153.51Z" transform="translate(-211 -151.642)" fill="#bec8f7"/>
    </g>
    <g id="Group_150" data-name="Group 150" transform="translate(0 10.895)">
      <path id="Path_77" data-name="Path 77" d="M207.177,235.944H192.235a3.735,3.735,0,0,1-3.735-3.735V221a3.735,3.735,0,0,1,3.735-3.735h14.941A3.735,3.735,0,0,1,210.912,221v11.206A3.735,3.735,0,0,1,207.177,235.944Z" transform="translate(-188.5 -217.267)" fill="#ffdd40"/>
    </g>
    <g id="Group_151" data-name="Group 151" transform="translate(0 10.895)">
      <path id="Path_78" data-name="Path 78" d="M192.235,232.208V221a3.735,3.735,0,0,1,3.735-3.735h-3.735A3.735,3.735,0,0,0,188.5,221v11.206a3.735,3.735,0,0,0,3.735,3.735h3.735A3.735,3.735,0,0,1,192.235,232.208Z" transform="translate(-188.5 -217.267)" fill="#ffb332"/>
    </g>
    <g id="Group_152" data-name="Group 152" transform="translate(8.716 15.253)">
      <path id="Path_79" data-name="Path 79" d="M245.98,246.007a2.49,2.49,0,1,0-3.735,2.154v4.071a1.245,1.245,0,1,0,2.49,0v-4.071A2.487,2.487,0,0,0,245.98,246.007Z" transform="translate(-241 -243.517)" fill="#ffb332"/>
    </g>
    <g id="Group_153" data-name="Group 153" transform="translate(0 15.253)">
      <path id="Path_80" data-name="Path 80" d="M193.9,246.007h-5.4v-2.49h5.4a1.245,1.245,0,0,1,0,2.49Z" transform="translate(-188.5 -243.517)" fill="#ffb332"/>
    </g>
    <g id="Group_154" data-name="Group 154" transform="translate(0 22.723)">
      <path id="Path_81" data-name="Path 81" d="M193.9,291.007h-5.4v-2.49h5.4a1.245,1.245,0,0,1,0,2.49Z" transform="translate(-188.5 -288.517)" fill="#ffb332"/>
    </g>
    <g id="Group_155" data-name="Group 155" transform="translate(0 18.988)">
      <path id="Path_82" data-name="Path 82" d="M193.9,268.507h-5.4v-2.49h5.4a1.245,1.245,0,0,1,0,2.49Z" transform="translate(-188.5 -266.017)" fill="#ffb332"/>
    </g>
    <g id="Group_156" data-name="Group 156" transform="translate(15.771 15.253)">
      <path id="Path_83" data-name="Path 83" d="M284.745,246.007h5.4v-2.49h-5.4a1.245,1.245,0,0,0,0,2.49Z" transform="translate(-283.5 -243.517)" fill="#ffb332"/>
    </g>
    <g id="Group_157" data-name="Group 157" transform="translate(15.771 22.723)">
      <path id="Path_84" data-name="Path 84" d="M284.745,291.007h5.4v-2.49h-5.4a1.245,1.245,0,0,0,0,2.49Z" transform="translate(-283.5 -288.517)" fill="#ffb332"/>
    </g>
    <g id="Group_158" data-name="Group 158" transform="translate(15.771 18.988)">
      <path id="Path_85" data-name="Path 85" d="M284.745,268.507h5.4v-2.49h-5.4a1.245,1.245,0,0,0,0,2.49Z" transform="translate(-283.5 -266.017)" fill="#ffb332"/>
    </g>
  </g>
</svg>
