<svg id="wild-harvested-ingredients" xmlns="http://www.w3.org/2000/svg" width="85" height="85" viewBox="0 0 85 85">
  <g id="Group_160" data-name="Group 160" transform="translate(31.155 45.944)">
    <g id="Path_86" data-name="Path 86" transform="translate(-289.135 -276.745)" fill="#f2c4ac">
      <path d="M 310.5791320800781 296.36181640625 C 309.3411865234375 296.36181640625 308.3340148925781 295.3546447753906 308.3340148925781 294.11669921875 L 308.3340148925781 277.9901123046875 C 308.3340148925781 276.7521667480469 309.3411865234375 275.7449951171875 310.5791320800781 275.7449951171875 C 311.8170776367188 275.7449951171875 312.8242492675781 276.7521667480469 312.8242492675781 277.9901123046875 L 312.8242492675781 294.11669921875 C 312.8242492675781 295.3546447753906 311.8170776367188 296.36181640625 310.5791320800781 296.36181640625 Z" stroke="none"/>
      <path d="M 310.5791320800781 276.7449951171875 C 309.8913269042969 276.7449951171875 309.3340148925781 277.302490234375 309.3340148925781 277.9901123046875 L 309.3340148925781 294.11669921875 C 309.3340148925781 294.8043518066406 309.8913269042969 295.36181640625 310.5791320800781 295.36181640625 C 311.2669372558594 295.36181640625 311.8242492675781 294.8043518066406 311.8242492675781 294.11669921875 L 311.8242492675781 277.9901123046875 C 311.8242492675781 277.302490234375 311.2669372558594 276.7449951171875 310.5791320800781 276.7449951171875 M 310.5791320800781 274.7449951171875 C 312.3684997558594 274.7449951171875 313.8242492675781 276.2007446289063 313.8242492675781 277.9901123046875 L 313.8242492675781 294.11669921875 C 313.8242492675781 295.9060668945313 312.3684997558594 297.36181640625 310.5791320800781 297.36181640625 C 308.7897644042969 297.36181640625 307.3340148925781 295.9060668945313 307.3340148925781 294.11669921875 L 307.3340148925781 277.9901123046875 C 307.3340148925781 276.2007446289063 308.7897644042969 274.7449951171875 310.5791320800781 274.7449951171875 Z" stroke="none" fill="#fff"/>
    </g>
    <g id="Path_87" data-name="Path 87" transform="translate(-187.666 -304.448)" fill="#f2c4ac">
      <path d="M 188.9111175537109 329.579833984375 C 187.6731567382813 329.579833984375 186.6660003662109 328.5726623535156 186.6660003662109 327.334716796875 L 186.6660003662109 311.2081298828125 C 186.6660003662109 309.9701843261719 187.6731567382813 308.9630126953125 188.9111175537109 308.9630126953125 C 190.1490783691406 308.9630126953125 191.1562347412109 309.9701843261719 191.1562347412109 311.2081298828125 L 191.1562347412109 327.334716796875 C 191.1562347412109 328.5726623535156 190.1490783691406 329.579833984375 188.9111175537109 329.579833984375 Z" stroke="none"/>
      <path d="M 188.9111175537109 309.9630126953125 C 188.2233123779297 309.9630126953125 187.6660003662109 310.5205078125 187.6660003662109 311.2081298828125 L 187.6660003662109 327.334716796875 C 187.6660003662109 328.0223693847656 188.2233123779297 328.579833984375 188.9111175537109 328.579833984375 C 189.5989227294922 328.579833984375 190.1562347412109 328.0223693847656 190.1562347412109 327.334716796875 L 190.1562347412109 311.2081298828125 C 190.1562347412109 310.5205078125 189.5989227294922 309.9630126953125 188.9111175537109 309.9630126953125 M 188.9111175537109 307.9630126953125 C 190.7004852294922 307.9630126953125 192.1562347412109 309.4187622070313 192.1562347412109 311.2081298828125 L 192.1562347412109 327.334716796875 C 192.1562347412109 329.1240844726563 190.7004852294922 330.579833984375 188.9111175537109 330.579833984375 C 187.1217498779297 330.579833984375 185.6660003662109 329.1240844726563 185.6660003662109 327.334716796875 L 185.6660003662109 311.2081298828125 C 185.6660003662109 309.4187622070313 187.1217498779297 307.9630126953125 188.9111175537109 307.9630126953125 Z" stroke="none" fill="#fff"/>
    </g>
  </g>
  <g id="Group_163" data-name="Group 163">
    <g id="Group_162" data-name="Group 162" transform="translate(18.367 16.17)">
      <g id="Path_88" data-name="Path 88" transform="translate(-212.106 -97.398)" fill="#3bd135">
        <path d="M 262.0020446777344 138.2965393066406 L 260.3712768554688 138.2965393066406 L 232.3050231933594 138.2965393066406 L 230.6742553710938 138.2965393066406 L 231.4137573242188 136.8430786132813 L 240.4877624511719 119.0083236694336 L 235.8521118164063 119.0083236694336 L 234.2213439941406 119.0083236694336 L 234.9608306884766 117.5548706054688 L 245.4468841552734 96.94453430175781 L 246.3381652832031 95.1927490234375 L 247.2294464111328 96.94452667236328 L 257.7156372070313 117.5548553466797 L 258.4551391601563 119.0083236694336 L 256.8243713378906 119.0083236694336 L 252.1887054443359 119.0083236694336 L 261.2625732421875 136.8430786132813 L 262.0020446777344 138.2965393066406 Z" stroke="none"/>
        <path d="M 260.3712768554688 137.2965393066406 L 250.5579376220703 118.0083236694336 L 256.8243713378906 118.0083236694336 L 246.3381652832031 97.39799499511719 L 235.8521118164063 118.0083236694336 L 242.1185302734375 118.0083236694336 L 232.3050231933594 137.2965393066406 L 260.3712768554688 137.2965393066406 M 263.6328125 139.2965393066406 L 260.3712768554688 139.2965393066406 L 232.3050231933594 139.2965393066406 L 229.0434875488281 139.2965393066406 L 230.5224761962891 136.3896026611328 L 238.8569793701172 120.0083236694336 L 235.8521118164063 120.0083236694336 L 232.590576171875 120.0083236694336 L 234.0695648193359 117.1014099121094 L 244.5556182861328 96.49107360839844 L 246.3381652832031 92.98749542236328 L 248.1207275390625 96.49106597900391 L 258.60693359375 117.1013946533203 L 260.0859069824219 120.0083236694336 L 256.8243713378906 120.0083236694336 L 253.8194580078125 120.0083236694336 L 262.1538391113281 136.3896179199219 L 263.6328125 139.2965393066406 Z" stroke="none" fill="#fff"/>
      </g>
      <g id="Group_161" data-name="Group 161" transform="translate(0 5.515)">
        <g id="Path_89" data-name="Path 89" transform="translate(-110.637 -130.616)" fill="#63db5e">
          <path d="M 140.3340454101563 171.5145568847656 L 138.7032775878906 171.5145568847656 L 110.6370239257813 171.5145568847656 L 109.0062637329102 171.5145568847656 L 109.7457427978516 170.0610961914063 L 118.8195953369141 152.2263488769531 L 114.1839370727539 152.2263488769531 L 112.5531692504883 152.2263488769531 L 113.2926712036133 150.7728729248047 L 123.7788772583008 130.1625518798828 L 124.6701583862305 128.4107666015625 L 125.5614318847656 130.1625518798828 L 136.0474700927734 150.7728881835938 L 136.7869567871094 152.2263488769531 L 135.1561889648438 152.2263488769531 L 130.5205383300781 152.2263488769531 L 139.5945434570313 170.0610961914063 L 140.3340454101563 171.5145568847656 Z" stroke="none"/>
          <path d="M 138.7032775878906 170.5145568847656 L 128.8897705078125 151.2263488769531 L 135.1561889648438 151.2263488769531 L 124.6701507568359 130.6160125732422 L 114.1839370727539 151.2263488769531 L 120.4503631591797 151.2263488769531 L 110.6370239257813 170.5145568847656 L 138.7032775878906 170.5145568847656 M 141.9648132324219 172.5145568847656 L 138.7032775878906 172.5145568847656 L 110.6370239257813 172.5145568847656 L 107.3755035400391 172.5145568847656 L 108.8544692993164 169.6076354980469 L 117.1888427734375 153.2263488769531 L 114.1839370727539 153.2263488769531 L 110.9223937988281 153.2263488769531 L 112.4013900756836 150.3194122314453 L 122.8876037597656 129.7090911865234 L 124.6701583862305 126.2055206298828 L 126.4526977539063 129.7090911865234 L 136.9387359619141 150.3194274902344 L 138.4177093505859 153.2263488769531 L 135.1561889648438 153.2263488769531 L 132.1513214111328 153.2263488769531 L 140.4858245849609 169.6076202392578 L 141.9648132324219 172.5145568847656 Z" stroke="none" fill="#fff"/>
        </g>
      </g>
    </g>
    <path id="Path_90" data-name="Path 90" d="M42.5,85A42.5,42.5,0,0,1,12.448,12.448a42.5,42.5,0,0,1,60.1,60.1A42.223,42.223,0,0,1,42.5,85Zm0-82.51a40.01,40.01,0,0,0-28.291,68.3A40.01,40.01,0,0,0,70.791,14.209,39.748,39.748,0,0,0,42.5,2.49Z" transform="translate(0 0)" fill="#63db5e"/>
  </g>
</svg>
